# xmcd CD database file
#
# Track frame offsets:
#	150
#	10505
#	23712
#	44266
#	60476
#	73163
#	86712
#	100902
#	121368
#	132209
#	146594
#	162729
#	178278
#	196989
#	216076
#
# Disc length: 3103 seconds
#
# Revision: 1
# Processed by: cddbd v1.5.2PL0 Copyright (c) Steve Scherf et al.
# Submitted via: CDex 1.70beta2
#
DISCID=d70c1d0f
DTITLE=Various Artist - trompette Collection Instrumentale
DYEAR=1900
DGENRE=Jazz
TTITLE0=Wonderful World
TTITLE1=Strangers In the Night
TTITLE2=My Heart will go on
TTITLE3=Feelings
TTITLE4=Rio Bravo
TTITLE5=Madison Square Garden
TTITLE6=Oublie Moi
TTITLE7=La Strada
TTITLE8=La plus belle chose au monde
TTITLE9=Il Silenzio
TTITLE10=Toutes les femmes sont belles
TTITLE11=Dolan Melody
TTITLE12=Con te Partiro
TTITLE13=Ave Maria
TTITLE14=Je chante avec toi liberte
EXTD=
EXTT0=
EXTT1=
EXTT2=
EXTT3=
EXTT4=
EXTT5=
EXTT6=
EXTT7=
EXTT8=
EXTT9=
EXTT10=
EXTT11=
EXTT12=
EXTT13=
EXTT14=
PLAYORDER=
